<svg xmlns="http://www.w3.org/2000/svg" width="1120" height="470" viewBox="0 0 1120 470">
<rect width="100%" height="100%" rx="18" fill="#111827"/>
<text x="55.0" y="55.0" fill="#f8fafc" font-size="27" font-family="system-ui, sans-serif" font-weight="700">Adaptive vs specialist profiles</text>
<text x="55.0" y="82.0" fill="#a7b0c0" font-size="14" font-family="system-ui, sans-serif">Mean aggregate completion throughput · matched uncensored v1.1 weights</text>
<line x1="80" y1="380.0" x2="1060" y2="380.0" stroke="#2b3548"/>
<text x="70.0" y="385.0" fill="#8993a4" font-size="12" text-anchor="end" font-family="system-ui, sans-serif">0.0</text>
<line x1="80" y1="313.8" x2="1060" y2="313.8" stroke="#2b3548"/>
<text x="70.0" y="318.8" fill="#8993a4" font-size="12" text-anchor="end" font-family="system-ui, sans-serif">25.0</text>
<line x1="80" y1="247.5" x2="1060" y2="247.5" stroke="#2b3548"/>
<text x="70.0" y="252.5" fill="#8993a4" font-size="12" text-anchor="end" font-family="system-ui, sans-serif">50.1</text>
<line x1="80" y1="181.2" x2="1060" y2="181.2" stroke="#2b3548"/>
<text x="70.0" y="186.2" fill="#8993a4" font-size="12" text-anchor="end" font-family="system-ui, sans-serif">75.1</text>
<line x1="80" y1="115.0" x2="1060" y2="115.0" stroke="#2b3548"/>
<text x="70.0" y="120.0" fill="#8993a4" font-size="12" text-anchor="end" font-family="system-ui, sans-serif">100.2</text>
<text x="243.3" y="407.0" fill="#d8dee9" font-size="14" text-anchor="middle" font-family="system-ui, sans-serif">10K</text>
<rect x="128.8" y="301.3" width="52" height="78.7" rx="6" fill="#65d6ad"/>
<text x="154.8" y="294.3" fill="#f8fafc" font-size="12" text-anchor="middle" font-family="system-ui, sans-serif">29.8</text>
<rect x="187.8" y="291.9" width="52" height="88.1" rx="6" fill="#22d3ee"/>
<text x="213.8" y="284.9" fill="#f8fafc" font-size="12" text-anchor="middle" font-family="system-ui, sans-serif">33.3</text>
<rect x="246.8" y="180.4" width="52" height="199.6" rx="6" fill="#f59e0b"/>
<text x="272.8" y="173.4" fill="#f8fafc" font-size="12" text-anchor="middle" font-family="system-ui, sans-serif">75.4</text>
<rect x="305.8" y="221.0" width="52" height="159.0" rx="6" fill="#c084fc"/>
<text x="331.8" y="214.0" fill="#f8fafc" font-size="12" text-anchor="middle" font-family="system-ui, sans-serif">60.1</text>
<text x="570.0" y="407.0" fill="#d8dee9" font-size="14" text-anchor="middle" font-family="system-ui, sans-serif">200K</text>
<rect x="455.5" y="290.2" width="52" height="89.8" rx="6" fill="#65d6ad"/>
<text x="481.5" y="283.2" fill="#f8fafc" font-size="12" text-anchor="middle" font-family="system-ui, sans-serif">33.9</text>
<rect x="514.5" y="300.4" width="52" height="79.6" rx="6" fill="#22d3ee"/>
<text x="540.5" y="293.4" fill="#f8fafc" font-size="12" text-anchor="middle" font-family="system-ui, sans-serif">30.1</text>
<rect x="573.5" y="159.8" width="52" height="220.2" rx="6" fill="#f59e0b"/>
<text x="599.5" y="152.8" fill="#f8fafc" font-size="12" text-anchor="middle" font-family="system-ui, sans-serif">83.2</text>
<rect x="632.5" y="208.8" width="52" height="171.2" rx="6" fill="#c084fc"/>
<text x="658.5" y="201.8" fill="#f8fafc" font-size="12" text-anchor="middle" font-family="system-ui, sans-serif">64.7</text>
<text x="896.7" y="407.0" fill="#d8dee9" font-size="14" text-anchor="middle" font-family="system-ui, sans-serif">300K</text>
<rect x="782.2" y="292.3" width="52" height="87.7" rx="6" fill="#65d6ad"/>
<text x="808.2" y="285.3" fill="#f8fafc" font-size="12" text-anchor="middle" font-family="system-ui, sans-serif">33.1</text>
<rect x="841.2" y="293.7" width="52" height="86.3" rx="6" fill="#22d3ee"/>
<text x="867.2" y="286.7" fill="#f8fafc" font-size="12" text-anchor="middle" font-family="system-ui, sans-serif">32.6</text>
<rect x="900.2" y="149.6" width="52" height="230.4" rx="6" fill="#f59e0b"/>
<text x="926.2" y="142.6" fill="#f8fafc" font-size="12" text-anchor="middle" font-family="system-ui, sans-serif">87.1</text>
<rect x="959.2" y="162.1" width="52" height="217.9" rx="6" fill="#c084fc"/>
<text x="985.2" y="155.1" fill="#f8fafc" font-size="12" text-anchor="middle" font-family="system-ui, sans-serif">82.4</text>
<rect x="80" y="430" width="16" height="16" rx="3" fill="#65d6ad"/>
<text x="104.0" y="443.0" fill="#d8dee9" font-size="13" font-family="system-ui, sans-serif">Tony C1 C1</text>
<rect x="325" y="430" width="16" height="16" rx="3" fill="#22d3ee"/>
<text x="349.0" y="443.0" fill="#d8dee9" font-size="13" font-family="system-ui, sans-serif">Adaptive C1</text>
<rect x="570" y="430" width="16" height="16" rx="3" fill="#f59e0b"/>
<text x="594.0" y="443.0" fill="#d8dee9" font-size="13" font-family="system-ui, sans-serif">Adaptive C4</text>
<rect x="815" y="430" width="16" height="16" rx="3" fill="#c084fc"/>
<text x="839.0" y="443.0" fill="#d8dee9" font-size="13" font-family="system-ui, sans-serif">stage-c long C4 C4</text>
</svg>
