<svg xmlns="http://www.w3.org/2000/svg" width="1120" height="470" viewBox="0 0 1120 470">
<rect width="100%" height="100%" rx="18" fill="#111827"/>
<text x="55.0" y="55.0" fill="#f8fafc" font-size="27" font-family="system-ui, sans-serif" font-weight="700">C1 and C4 runtime comparison</text>
<text x="55.0" y="82.0" fill="#a7b0c0" font-size="14" font-family="system-ui, sans-serif">Mean aggregate completion throughput · matched uncensored v1.1 weights</text>
<line x1="80" y1="380.0" x2="1060" y2="380.0" stroke="#2b3548"/>
<text x="70.0" y="385.0" fill="#8993a4" font-size="12" text-anchor="end" font-family="system-ui, sans-serif">0.0</text>
<line x1="80" y1="313.8" x2="1060" y2="313.8" stroke="#2b3548"/>
<text x="70.0" y="318.8" fill="#8993a4" font-size="12" text-anchor="end" font-family="system-ui, sans-serif">23.7</text>
<line x1="80" y1="247.5" x2="1060" y2="247.5" stroke="#2b3548"/>
<text x="70.0" y="252.5" fill="#8993a4" font-size="12" text-anchor="end" font-family="system-ui, sans-serif">47.4</text>
<line x1="80" y1="181.2" x2="1060" y2="181.2" stroke="#2b3548"/>
<text x="70.0" y="186.2" fill="#8993a4" font-size="12" text-anchor="end" font-family="system-ui, sans-serif">71.0</text>
<line x1="80" y1="115.0" x2="1060" y2="115.0" stroke="#2b3548"/>
<text x="70.0" y="120.0" fill="#8993a4" font-size="12" text-anchor="end" font-family="system-ui, sans-serif">94.7</text>
<text x="243.3" y="407.0" fill="#d8dee9" font-size="14" text-anchor="middle" font-family="system-ui, sans-serif">10K</text>
<rect x="128.8" y="285.6" width="52" height="94.4" rx="6" fill="#65d6ad"/>
<text x="154.8" y="278.6" fill="#f8fafc" font-size="12" text-anchor="middle" font-family="system-ui, sans-serif">33.8</text>
<rect x="187.8" y="185.9" width="52" height="194.1" rx="6" fill="#f59e0b"/>
<text x="213.8" y="178.9" fill="#f8fafc" font-size="12" text-anchor="middle" font-family="system-ui, sans-serif">69.4</text>
<rect x="246.8" y="285.5" width="52" height="94.5" rx="6" fill="#7aa2f7"/>
<text x="272.8" y="278.5" fill="#f8fafc" font-size="12" text-anchor="middle" font-family="system-ui, sans-serif">33.8</text>
<rect x="305.8" y="211.9" width="52" height="168.1" rx="6" fill="#c084fc"/>
<text x="331.8" y="204.9" fill="#f8fafc" font-size="12" text-anchor="middle" font-family="system-ui, sans-serif">60.1</text>
<text x="570.0" y="407.0" fill="#d8dee9" font-size="14" text-anchor="middle" font-family="system-ui, sans-serif">200K</text>
<rect x="455.5" y="317.2" width="52" height="62.8" rx="6" fill="#65d6ad"/>
<text x="481.5" y="310.2" fill="#f8fafc" font-size="12" text-anchor="middle" font-family="system-ui, sans-serif">22.4</text>
<rect x="514.5" y="202.9" width="52" height="177.1" rx="6" fill="#f59e0b"/>
<text x="540.5" y="195.9" fill="#f8fafc" font-size="12" text-anchor="middle" font-family="system-ui, sans-serif">63.3</text>
<rect x="573.5" y="315.8" width="52" height="64.2" rx="6" fill="#7aa2f7"/>
<text x="599.5" y="308.8" fill="#f8fafc" font-size="12" text-anchor="middle" font-family="system-ui, sans-serif">22.9</text>
<rect x="632.5" y="199.0" width="52" height="181.0" rx="6" fill="#c084fc"/>
<text x="658.5" y="192.0" fill="#f8fafc" font-size="12" text-anchor="middle" font-family="system-ui, sans-serif">64.7</text>
<text x="896.7" y="407.0" fill="#d8dee9" font-size="14" text-anchor="middle" font-family="system-ui, sans-serif">300K</text>
<rect x="782.2" y="294.1" width="52" height="85.9" rx="6" fill="#65d6ad"/>
<text x="808.2" y="287.1" fill="#f8fafc" font-size="12" text-anchor="middle" font-family="system-ui, sans-serif">30.7</text>
<rect x="841.2" y="157.1" width="52" height="222.9" rx="6" fill="#f59e0b"/>
<text x="867.2" y="150.1" fill="#f8fafc" font-size="12" text-anchor="middle" font-family="system-ui, sans-serif">79.7</text>
<rect x="900.2" y="291.9" width="52" height="88.1" rx="6" fill="#7aa2f7"/>
<text x="926.2" y="284.9" fill="#f8fafc" font-size="12" text-anchor="middle" font-family="system-ui, sans-serif">31.5</text>
<rect x="959.2" y="149.6" width="52" height="230.4" rx="6" fill="#c084fc"/>
<text x="985.2" y="142.6" fill="#f8fafc" font-size="12" text-anchor="middle" font-family="system-ui, sans-serif">82.4</text>
<rect x="80" y="430" width="16" height="16" rx="3" fill="#65d6ad"/>
<text x="104.0" y="443.0" fill="#d8dee9" font-size="13" font-family="system-ui, sans-serif">Tony C4-capable C1</text>
<rect x="325" y="430" width="16" height="16" rx="3" fill="#f59e0b"/>
<text x="349.0" y="443.0" fill="#d8dee9" font-size="13" font-family="system-ui, sans-serif">Tony C4-capable C4</text>
<rect x="570" y="430" width="16" height="16" rx="3" fill="#7aa2f7"/>
<text x="594.0" y="443.0" fill="#d8dee9" font-size="13" font-family="system-ui, sans-serif">stage-c long C4 C1</text>
<rect x="815" y="430" width="16" height="16" rx="3" fill="#c084fc"/>
<text x="839.0" y="443.0" fill="#d8dee9" font-size="13" font-family="system-ui, sans-serif">stage-c long C4 C4</text>
</svg>
